<?xml version="1.0" encoding="UTF-8" standalone="no"?>
<svg xmlns="http://www.w3.org/2000/svg" version="1.1" viewBox="0 0 5537.5873 3430.025" width="554" height="343">
<!--
	For square aspect ratio (icon) with 100px padding, replace above definition with
		viewBox="-993.0994 -1600.33085 6630.6867 6630.6867"
	and adjust width and height accordingly
-->
<path fill="#FFFFFF" d="M0,2930.9475h4718.425l-1238.45,-2900.96h-19.775z"/>
<path fill="#A81C7D" fill-rule="evenodd" d="M0,2930.9475h4718.425l-1238.45,-2900.96h-19.775zM2162.6913,1211.2815c-16.228,-0.003,-29.367,2.305,-29.367,2.305c0,0,-71.112,40.213,-160.762,92.763c-89.687,52.55,-250.487,163.875,-275.25,200.975c-24.675,37.1,-126.713,145.312,-126.713,145.312l-7.137,9.088c-79.137,-10.662,-163.287,-13.588,-212.437,3.325c-98.95,33.987,-312.265,160.726,-346.289,238.076c-27.979,63.562,-58.007,118.811,-60.863,188.023c-38.819,82.838,-59.913,224.998,33.031,424.227c0,0,55.664,33.911,142.236,24.687c19.043,-1.987,46.655,-2.865,77.237,-6.013c-75.773,98.74,-168.603,221.126,-204.018,256.423c-52.549,52.589,-389.575,349.439,-445.24,364.889c-55.664,15.526,-74.195,9.303,-27.832,33.99c46.362,24.747,128.832,6.223,158.715,-37.14c29.883,-43.213,70.094,-114.325,104.152,-148.309c33.983,-34.062,213.281,-145.392,228.734,-166.988c15.274,-21.314,273.487,-279.717,301.762,-331.651c18.712,-9.076,35.625,-20.879,49.287,-36.328c15.013,-1.172,29.076,-4.095,41.676,-9.297c83.5,-33.988,216.437,-139.091,281.324,-231.816c37.425,-53.46,70.749,-111.036,88.699,-158.561c34.638,-27.25,62.251,-46.661,72.139,-48.636c30.912,-6.225,80.387,-21.677,80.387,30.836c0,52.587,52.549,166.987,98.912,235.029c46.437,68.046,108.25,123.711,108.25,123.711c0,0,-3.112,27.821,27.838,30.912c30.9,3.071,58.701,-6.163,64.888,9.297c14.938,37.275,80.425,9.229,111.287,-18.535c30.951,-27.9,43.362,18.535,86.612,-9.303c43.362,-27.764,61.851,-64.959,61.851,-114.471c0,-21.103,-10.213,-39.264,-25.888,-51.642c2.712,-2.485,4.25,-3.949,4.25,-3.949c0,0,36.874,2.642,73.599,-9.233c-2.737,16.333,-2.737,37.061,0.588,64.824c9.25,77.334,61.913,126.85,92.75,126.85c30.975,0,52.588,33.984,52.588,33.984c0,0,-3.075,58.74,40.275,71.127c43.225,12.374,160.7,-43.291,188.538,-67.978c27.825,-24.745,83.488,37.067,108.175,89.654c24.75,52.51,154.612,272.1,201.049,324.688c46.363,52.51,108.175,139.087,166.912,213.271c58.813,74.205,25.127,81.738,43.727,81.738c18.537,0,6.161,12.377,21.611,27.836c15.45,15.528,98.95,64.889,120.625,80.338c21.613,15.464,111.339,46.441,123.639,37.139c12.375,-9.224,18.523,-40.137,18.523,-40.137c0,0,-15.449,6.152,-77.261,-15.521c-61.9,-21.617,-142.238,-74.127,-151.538,-89.655c-9.312,-15.448,-37.062,-27.822,-37.062,-27.822c0,0,-82.837,-97.202,-132.35,-193.002c0,0,-41.238,-98.951,-84.525,-194.826c-43.213,-95.874,-185.45,-377.195,-247.338,-392.65c-61.887,-15.523,-139.162,3.003,-182.449,40.142c-43.213,37.134,-61.814,24.744,-83.414,9.295c-21.688,-15.449,3.137,-52.586,-9.313,-105.096c-4.387,-18.676,-13.398,-47.827,-26.586,-75.289c14.438,-1.913,26.813,-10.337,32.813,-26.738c12.387,-34.063,9.236,-49.513,52.523,-43.363c6.438,0.949,15.963,1.763,27.901,1.9c-6.225,11.063,-10.038,20.438,-10.25,26.375c-1.175,34.565,26.363,97.491,67.3,112.715c40.95,15.235,214.388,90.825,250.788,54.496c36.4,-36.396,197.975,-124.662,226.687,-140.625c28.775,-15.825,81.662,-26.585,99.824,-22.562c18.163,3.892,55.376,138.579,118.951,253.636c63.638,114.991,53.1,163.326,94.625,147.076c41.526,-16.26,40.725,31.049,78.95,29.799c38.237,-1.235,45.125,25.641,67.463,68.414c22.337,42.852,45.7,95.439,100.712,104.229c55.076,8.784,273.699,65.697,298.674,52.221c25.2,-13.55,26.364,-48.125,-37.136,-61.885c-63.425,-13.774,-211.964,-14.439,-244.989,-37.442c-33.037,-22.925,-41.312,-145.008,-76.25,-158.92c-34.862,-13.925,-87.962,-31.787,-94.412,-45.849c-5.487,-12.018,-129.925,-232.554,-177.9,-350.254c63.212,26.952,160.625,65.112,220.088,84.228c86.575,27.838,235.037,74.2,296.849,74.2c39.188,0,54.713,-13.702,60.875,-23.741c4.175,10.777,7.764,19.277,10.326,23.741c12.3,21.596,30.838,37.138,30.838,37.138c0,0,-6.162,12.3,12.375,21.596c18.525,9.301,145.388,27.839,191.75,71.129c46.363,43.272,111.325,126.773,117.475,204.049c6.225,77.26,55.587,160.76,80.35,163.91c24.75,3.076,52.586,0.001,27.824,-105.098c-24.675,-105.175,-61.812,-188.598,-120.549,-235.039c-58.738,-46.435,-210.275,-120.547,-228.813,-129.922c-18.6,-9.238,-43.212,-33.99,-52.587,-33.99c-9.3,0,-6.15,-9.223,-21.6,-61.81c-2.712,-9.312,-5.425,-19.639,-8.213,-30.625c4.038,-10.328,18.312,-49.512,23.662,-102.389c6.15,-61.75,-21.674,-197.776,-46.361,-231.863c0,0,-2.488,-21.749,-3,-39.549c7.687,3.837,15.448,4.424,21.523,-0.588c18.538,-15.5,67.975,-80.462,145.313,-114.412c77.35,-34.088,151.476,-64.963,238.039,-71.188c86.575,-6.15,98.949,-12.301,98.949,-12.301c0,0,40.213,-6.187,86.65,18.526c46.363,24.725,321.537,163.875,361.737,179.375c40.212,15.462,102.038,43.288,145.388,77.275c43.213,34.025,77.2,30.887,77.2,30.887c0,0,30.912,34.05,77.349,64.963c46.363,30.9,61.814,46.363,89.639,52.588c27.837,6.15,83.5,35.012,12.463,-67.088c0,0,-71.201,-72.076,-133.014,-99.889c-61.887,-27.875,-58.812,-55.711,-95.875,-58.736c-37.137,-3.125,-105.099,-15.501,-160.762,-40.213c-55.662,-24.8,-213.288,-89.65,-281.326,-126.75c-68.05,-37.125,-111.4,-64.962,-129.937,-80.449c-18.525,-15.463,-49.512,-13.414,-108.174,-4.102c0,0,-166.988,38.152,-225.738,65.914c-58.738,27.9,-191.737,102.099,-213.424,120.586c0,0,-24.463,0.001,-33.613,11.701c-1.175,-0.787,-2.275,-1.662,-3.45,-2.349c-15.45,-9.35,-114.4,-105.151,-114.4,-105.151c-49.512,-43.275,-133.013,-132.924,-185.525,-176.287c-52.588,-43.25,-264.4,-110.413,-352.438,-101.951c-82.475,7.8,-121.287,61.737,-142.6,114.287c-17.287,-30.612,-36.625,-61.524,-55.3,-83.349c-52.513,-61.888,-68.037,-80.45,-68.037,-80.45c0,0,-55.676,0,-111.338,37.1c-33.688,22.475,-81.001,73.35,-113.088,109.963c-26.8,0.512,-48.337,6.962,-60.049,16.812c-40.138,33.988,-268.951,194.826,-278.176,234.963c-5.862,25.075,-15.238,41.675,-27.463,50.688c-18.312,-18.388,-55.161,-34.638,-96.261,-16.625c-2.563,1.1,-5.463,2.274,-8.35,3.537c-5.713,-111.313,-21.237,-403.414,-28.787,-433.326c-9.3,-37.1,-27.825,-64.937,-58.813,-49.475c-30.912,15.413,-58.664,58.776,-58.664,105.139c0,46.325,18.563,71.036,24.713,89.648c5.163,15.525,10.363,244.85,21.063,334.375c-40.8,22.488,-78.188,50.439,-89.063,83.039c-21.65,64.938,-18.599,89.625,-37.137,108.225c-2.412,2.412,-6.075,5.049,-10.25,7.762c-13.262,-12.675,-28.75,-25.263,-40.875,-37.651c-6.512,-28.125,-8.275,-59.973,17.1,-75.211c30.95,-18.587,30.95,-139.187,0,-151.562l-30.937,-12.338c0,0,55.7,-207.201,43.363,-324.613c-12.425,-117.625,-24.764,-241.262,-49.514,-259.825c-12.362,-9.25,-31.68,-11.565,-47.908,-11.568zm-23.627,47.295c15.944,-0.084,26.326,12.812,22.098,44.66c-6.163,46.438,-37.101,235.038,-40.213,306.15c-3.075,71.088,3.113,216.387,3.113,216.387c0,0,-38.638,26.852,-34.238,57.039c-11.363,-2.275,-20.287,-3.426,-24.537,-4.476c-12.388,-3.05,24.75,-126.712,-21.688,-157.662c-46.362,-30.938,-132.925,3.151,-163.838,18.576c-25.012,12.525,-72.361,20.974,-89.424,23.799c-6.3,-22.163,-18.826,-45.487,-43.513,-57.862c-22.7,-11.275,-76.386,-25.776,-138.612,-36.551l98.401,-105.65c0,0,74.199,-6.15,126.787,-43.25c52.55,-37.062,253.562,-238.112,281.324,-253.562c8.696,-4.84,17.093,-7.56,24.34,-7.598zm1048.262,205.762c11.631,0.046,20.74,8.525,25.099,24.486c5.638,20.363,22.337,95.624,34.787,152.387c-29.512,5.75,-51.125,10.55,-64.525,17.25c-25.487,-34.65,-54.937,-59.624,-84.887,-76.836c11.2,-24.788,23.438,-55.475,43.5,-83.563c16.423,-22.996,32.844,-33.777,46.026,-33.724zm29.336,404.037c9.6,2.588,19.637,4.4,29.375,4.938c2.487,58.125,29.45,104.023,49.875,141.086c14.137,25.85,48.201,55.889,84.889,83.351c-21.75,3.225,-41.814,7.912,-57.489,12.225c0,0,-251.513,50.837,-298.025,75.513c-46.513,24.762,-85.25,57.423,-114.85,47.901c-29.512,-9.663,49.225,-36.914,117.412,-88.477c26.738,-20.287,46.951,-51.338,50.614,-78.513c4.612,-5.788,9.149,-11.65,13.324,-17.95c45.637,-68.475,98.15,-122.286,124.875,-180.074zm488.033,57.422c1.966,0.007,3.893,0.128,5.768,0.365c30.912,3.888,30.913,11.5,61.9,57.912c30.9,46.363,38.587,108.176,15.449,131.401c-23.225,23.212,-50.311,30.9,-116.011,-57.938c-62.549,-84.792,-7.068,-131.884,32.894,-131.74zm-1926.158,3.227c15.312,9.45,46.325,28.589,74.275,43.039c-21.825,10.762,-42.637,27.536,-65.562,44.673c1.1,-11.862,0.149,-22.037,-3.364,-30.099c-5.712,-13.4,-6.662,-34.613,-5.349,-57.613zm283.812,152.238c24.463,4.913,47.1,5.2,64.75,22.787c20.725,20.725,38.088,72.438,55.813,97.411c-12.888,40.865,-16.662,59.912,21.525,72.724c46.363,15.454,86.575,-6.219,86.575,-6.219c0,0,5.6,6.732,14.875,14.721c-38.525,22.413,-74.787,47.603,-85.987,62.627c-18.6,24.674,-40.213,12.299,-40.213,12.299c0,0,-74.199,-123.636,-105.136,-238.111c-3.813,-14.063,-7.914,-26.739,-12.202,-38.239z"/>
<path fill="#231F20" d="M228.6225,3405.025l-209.76,-87.202v-55.073l209.76,-87.026v65.576l-127.48,49.076l127.48,49.434zm345.983,-24.224h-94.508l-13.54,44.537h-85.385l101.415,-270.699h91.611l101.505,270.699h-87.574zm-17.701,-58.589l-29.443,-97.364l-29.566,97.364zm277.54,-167.574h139.023c30.278,0,52.965,7.198,68.042,21.598c15.079,14.414,22.623,34.911,22.623,61.527c0,27.335,-8.223,48.697,-24.654,64.088c-16.435,15.4,-41.524,23.1,-75.254,23.1h-45.796v100.386h-83.984zm83.984,115.625h20.557c16.171,0,27.534,-2.813,34.071,-8.428c6.549,-5.61,9.825,-12.812,9.825,-21.572c0,-8.515,-2.847,-15.736,-8.521,-21.665c-5.684,-5.923,-16.366,-8.886,-32.045,-8.886h-23.887zm455.66,110.538h-94.513l-13.525,44.536h-85.399l101.412,-270.699h91.625l101.5,270.699h-87.575zm-17.7,-58.589l-29.45,-97.364l-29.563,97.364zm451.175,-7.427l73.438,22.051c-4.926,20.527,-12.676,37.691,-23.263,51.489c-10.588,13.76,-23.725,24.175,-39.413,31.172c-15.7,7.017,-35.675,10.528,-59.912,10.528c-29.425,0,-53.463,-4.278,-72.1,-12.837c-18.65,-8.55,-34.75,-23.589,-48.288,-45.127c-13.537,-21.538,-20.3,-49.126,-20.3,-82.71c0,-44.8,11.9,-79.253,35.7,-103.315c23.8,-24.063,57.475,-36.085,101.025,-36.085c34.075,0,60.863,6.885,80.363,20.684c19.5,13.79,33.987,34.976,43.462,63.55l-73.837,16.538c-2.575,-8.296,-5.275,-14.361,-8.088,-18.213c-4.675,-6.45,-10.387,-11.397,-17.137,-14.858c-6.75,-3.477,-14.3,-5.201,-22.638,-5.201c-18.9,0,-33.387,7.622,-43.45,22.886c-7.612,11.324,-11.412,29.111,-11.412,53.35c0,30.039,4.537,50.615,13.625,61.748c9.075,11.128,21.837,16.704,38.287,16.704c15.95,0,28.013,-4.478,36.175,-13.413c8.163,-8.941,14.088,-21.929,17.763,-38.941zm246.637,-160.147h83.588v94.912h91.412v-94.912h83.988v270.699h-83.988v-109.375h-91.412v109.375h-83.588zm446.388,0h224.612v57.813h-140.625v42.959h130.475v55.078h-130.475v53.525h144.538v61.324h-228.525zm830.137,226.163h-94.512l-13.537,44.536h-85.388l101.412,-270.699h91.613l101.5,270.699h-87.563zm-17.7,-58.589l-29.45,-97.364l-29.563,97.364zm278.313,-167.574h77.949l102.125,149.938v-149.938h78.913v270.699h-78.913l-101.562,-149.126v149.126h-78.513zm428.037,0h253.913v66.787h-85.163v203.912h-83.587v-203.911h-85.163zm416.212,185.171l127.488,-49.434l-127.488,-49.076v-65.576l209.763,87.026v55.073l-209.762,87.202z"/>
</svg>
